<?xml version="1.0" standalone="no"?>
<!DOCTYPE svg PUBLIC "-//W3C//DTD SVG 20010904//EN"
 "http://www.w3.org/TR/2001/REC-SVG-20010904/DTD/svg10.dtd">
<svg version="1.0" xmlns="http://www.w3.org/2000/svg"
 width="192.000000pt" height="192.000000pt" viewBox="0 0 192.000000 192.000000"
 preserveAspectRatio="xMidYMid meet">
<metadata>
Created by potrace 1.14, written by Peter Selinger 2001-2017
</metadata>
<g transform="translate(0.000000,192.000000) scale(0.100000,-0.100000)"
fill="#000000" stroke="none">
<path d="M460 1180 c-98 -20 -207 -112 -226 -192 -13 -55 -19 -108 -19 -173
l0 -70 115 -3 115 -3 0 90 c0 136 -6 133 300 131 33 0 71 0 85 0 132 5 340 3
340 -3 0 -5 5 -5 11 -1 13 8 211 7 249 -1 45 -9 60 -41 60 -135 l0 -85 112 3
113 3 -1 87 c-1 48 -5 105 -9 127 -5 22 -8 43 -7 47 1 3 -5 12 -13 18 -8 7
-15 16 -15 21 0 15 -49 66 -90 94 -75 52 -105 55 -615 53 -258 0 -486 -4 -505
-8z"/>
</g>
</svg>
